/* XPM */
static char *result[] = {
/* columns rows colors chars-per-pixel */
"64 64 5 1 ",
"  c #347092",
". c #174FE0",
"X c #3AC2FC",
"o c white",
"O c None",
/* pixels */
"OOOOOOOOOOOOOOOOOOOOOOOOOOOOOOOOOOOOOOOOOOOOOOOOOOOOOOOOOOOOOOOO",
"OOOOOO.....OOOOOOOOOOOOOOOOOOOOOOOOOOOOOOOOOOOOOOOOOOOOOOOOOOOOO",
"OOOOO.XXXXX.....OOOOOOOOOOOOOOOOOOOOOOOOOOOOOOOOOOOOOOOOOOOOOOOO",
"OOOO.XoooooXXXXX....OOOOOOOOOOOOOOOOOOOOOOOOOOOOOOOOOOOOOOOOOOOO",
"OOOO.XooooXoooooXXXX.....OOOOOOOOOOOOOOOOOOOOOOOOOOOOOOOOOOOOOOO",
"OOOO.XoooooXXXXXooooXXXXX.....OOOOOOOOOOOOOOOOOOOOOOOOOOOOOOOOOO",
"OOOOO.XoooX.....XXXXoooooXXXXX....OOOOOOOOOOOOOOOOOOOOOOOOOOOOOO",
"OOOOO.XooXoX.   .....XXXXoooooXXXX.....OOOOOOOOOOOOOOOOOOOOOOOOO",
"OOOOO.XooXXoX.       ....XXXXXooooXXXXX.....OOOOOOOOOOOOOOOOOOOO",
"OOOOOO.XoX.XoX.          .....XXXXoooooXXXXX....OOOOOOOOOOOOOOOO",
"OOOOOO.Xoo..XoX.              ....XXXXXoooooXXXo.OOOOOOOOOOOOOOO",
"OOOOOOO.Xo. .XoX.                 .....XXXXXooooo.OOOOOOOOOOOOOO",
"OOOOOOO.Xoo. .XoX.                     .....XXoooX.OOOOOOOOOOOOO",
"OOOOOOO.Xoo.  .XoX.                          .XoXoX.OOOOOOOOOOOO",
"OOOOOOOO.XoX.  .XoX.                        .XoX.XoX.OOOOOOOOOOO",
"OOOOOOOO.Xoo.   .XoX.                      .XoX. .XoX.OOOOOOOOOO",
"OOOOOOOOO.Xo.    .XoX.                    .XoX.   .XoX.OOOOOOOOO",
"OOOOOOOOO.Xoo.    .XoX.                  .XoX.     .XoX.OOOOOOOO",
"OOOOOOOOOO.Xo.     .XoX.                .XoX.       .XoX.OOOOOOO",
"OOOOOOOOOO.XoX.     .XoX.              .XoX.         .XoX.OOOOOO",
"OOOOOOOOOO.Xoo.      .XoX.            .XoX.           .XoX.OOOOO",
"OOOOOOOOOOO.XoX.      .XoX.          .XoX.             .XoX.OOOO",
"OOOOOOOOOOO.Xoo.       .XoX.        .XoX.            ....ooo.OOO",
"OOOOOOOOOOOO.Xo.        .XoX.      .XoX.         ....XXXXoooXOOO",
"OOOOOOOOOOOO.XoX.        .XoX.    .XoX.      ....XXXXooooooo.OOO",
"OOOOOOOOOOOOO.Xo.         .XoX.  .XoX.   ....XXXXooooXXXXoX.OOOO",
"OOOOOOOOOOOOO.XoX.         .XoX..XoX.....XXXXooooXX....XoX.OOOOO",
"OOOOOOOOOOOOO.Xoo.          .Xoooo...XXXXooooXX....  .XoX.OOOOOO",
"OOOOOOOOOOOOOO.XoX.         .XooooXXXooooXXX...     .XoX.OOOOOOO",
"OOOOOOOOOOOOOO.Xoo.         .XoooooooXXX....       .XoX.OOOOOOOO",
"OOOOOOOOOOOOOOO.Xo.         .XoooXXX....          .XoX.OOOOOOOOO",
"OOOOOOOOOOOOOOO.XoX.         .XoX...             .XoX.OOOOOOOOOO",
"OOOOOOOOOOOOOOOO.Xo.         .XoX.              .XoX.OOOOOOOOOOO",
"OOOOOOOOOOOOOOOO.XoX.        .XoX.             .XoX.OOOOOOOOOOOO",
"OOOOOOOOOOOOOOOO.Xoo.       .XoX.             .XoX.OOOOOOOOOOOOO",
"OOOOOOOOOOOOOOOOO.XoX.      .XoX.            .XoX.OOOOOOOOOOOOOO",
"OOOOOOOOOOOOOOOOO.XoX.      .XoX.           .XoX.OOOOOOOOOOOOOOO",
"OOOOOOOOOOOOOOOOOO.Xo.      .XoX.          .XoX.OOOOOOOOOOOOOOOO",
"OOOOOOOOOOOOOOOOOO.XoX.     .XoX.         .XoX.OOOOOOOOOOOOOOOOO",
"OOOOOOOOOOOOOOOOOO.XXo.    .XoX.         .XoX.OOOOOOOOOOOOOOOOOO",
"OOOOOOOOOOOOOOOOOOO.XoX.   .XoX.        .XoX.OOOOOOOOOOOOOOOOOOO",
"OOOOOOOOOOOOOOOOOOO.XoX.   .XoX.       .XoX.OOOOOOOOOOOOOOOOOOOO",
"OOOOOOOOOOOOOOOOOOOO.XoX.  .XoX.      .XoX.OOOOOOOOOOOOOOOOOOOOO",
"OOOOOOOOOOOOOOOOOOOO.XoX.  .XoX.     .XoX.OOOOOOOOOOOOOOOOOOOOOO",
"OOOOOOOOOOOOOOOOOOOOO.Xo.  .XoX.    .XoX.OOOOOOOOOOOOOOOOOOOOOOO",
"OOOOOOOOOOOOOOOOOOOOO.XoX..XoX.    .XoX.OOOOOOOOOOOOOOOOOOOOOOOO",
"OOOOOOOOOOOOOOOOOOOOO.Xoo..XoX.   .XoX.OOOOOOOOOOOOOOOOOOOOOOOOO",
"OOOOOOOOOOOOOOOOOOOOOO.XoX.XoX.  .XoX.OOOOOOOOOOOOOOOOOOOOOOOOOO",
"OOOOOOOOOOOOOOOOOOOOOO.XoX.XoX. .XoX.OOOOOOOOOOOOOOOOOOOOOOOOOOO",
"OOOOOOOOOOOOOOOOOOOOOOO.Xo.XoX..XoX.OOOOOOOOOOOOOOOOOOOOOOOOOOOO",
"OOOOOOOOOOOOOOOOOOOOOOO.XoXoX..XoX.OOOOOOOOOOOOOOOOOOOOOOOOOOOOO",
"OOOOOOOOOOOOOOOOOOOOOOOO.XooX.XoX.OOOOOOOOOOOOOOOOOOOOOOOOOOOOOO",
"OOOOOOOOOOOOOOOOOOOOOOOO.XoooXoX.OOOOOOOOOOOOOOOOOOOOOOOOOOOOOOO",
"OOOOOOOOOOOOOOOOOOOOOOOO.XooooX.OOOOOOOOOOOOOOOOOOOOOOOOOOOOOOOO",
"OOOOOOOOOOOOOOOOOOOOOOOOO.XooX.OOOOOOOOOOOOOOOOOOOOOOOOOOOOOOOOO",
"OOOOOOOOOOOOOOOOOOOOOOOOO.XoX.OOOOOOOOOOOOOOOOOOOOOOOOOOOOOOOOOO",
"OOOOOOOOOOOOOOOOOOOOOOOOOO.X.OOOOOOOOOOOOOOOOOOOOOOOOOOOOOOOOOOO",
"OOOOOOOOOOOOOOOOOOOOOOOOOO..OOOOOOOOOOOOOOOOOOOOOOOOOOOOOOOOOOOO",
"OOOOOOOOOOOOOOOOOOOOOOOOOOOOOOOOOOOOOOOOOOOOOOOOOOOOOOOOOOOOOOOO",
"OOOOOOOOOOOOOOOOOOOOOOOOOOOOOOOOOOOOOOOOOOOOOOOOOOOOOOOOOOOOOOOO",
"OOOOOOOOOOOOOOOOOOOOOOOOOOOOOOOOOOOOOOOOOOOOOOOOOOOOOOOOOOOOOOOO",
"OOOOOOOOOOOOOOOOOOOOOOOOOOOOOOOOOOOOOOOOOOOOOOOOOOOOOOOOOOOOOOOO",
"OOOOOOOOOOOOOOOOOOOOOOOOOOOOOOOOOOOOOOOOOOOOOOOOOOOOOOOOOOOOOOOO",
"OOOOOOOOOOOOOOOOOOOOOOOOOOOOOOOOOOOOOOOOOOOOOOOOOOOOOOOOOOOOOOOO"
};
