/* XPM */
static char *result[] = {
/* columns rows colors chars-per-pixel */
"64 64 5 1 ",
"  c #111126",
". c #242455",
"X c #8C03FC",
"o c magenta",
"O c white",
/* pixels */
"OOOOOOOOOOOOOOOOOOOOOOOOOOOOOOOOOOOOOOOOOOOOOOOOOOOOOOOOOOOOOOOO",
"OOOOOOOOOOOOOOOOOOOOOOOOOOOOOOOOOOOOOOOOOOOOOOOOOOOOOOOOOOOOOOOO",
"OOOOOOOOOOOOOOOOOOOOOOOOOOOOOOOOOOOOOOOOOOOOOOOOOOOOOOOOOOOOOOOO",
"OOOooooooooooooooooooooooooooooooooooooooooooooooooooooooooooOOO",
"OOooooooooooooooooooooooooooooooooooooooooooooooooooooooooooooOO",
"OOoooXXXXXXXXXXXXXXXXXXXXXXXXXXXXXXXXXXXXXXXXXXXXXXXXXXXXXXoooOO",
"OOooXXXXXXXXXXXXXXXXXXXXXXXXXXXXXXXXXXXXXXXXXXXXXXXXXXXXXXXXooOO",
"OOooXXX                                                  XXXooOO",
"OOooXX    XXXXXXXXXXXXXXXXXXXXXXXXXXXXXXXXXXXXXXXXXXXX    XXooOO",
"OOooXX  XX                                            XX  XXooOO",
"OOooXX  X                                              X  XXooOO",
"OOooXX X                                                X XXooOO",
"OOooXX X                                                X XXooOO",
"OOooXX X                                                X XXooOO",
"OOooXX X                                                X XXooOO",
"OOooXX X                                                X XXooOO",
"OOooXX X                                                X XXooOO",
"OOooXX X                                                X XXooOO",
"OOooXX X                                                X XXooOO",
"OOooXX X                                                X XXooOO",
"OOooXX X                                                X XXooOO",
"OOooXX X                                                X XXooOO",
"OOooXX X                                                X XXooOO",
"OOooXX X                                                X XXooOO",
"OOooXX X                                                X XXooOO",
"OOooXX X                                                X XXooOO",
"OOooXX X                                                X XXooOO",
"OOooXX.X................................................X.XXooOO",
"OOooXX X                                                X XXooOO",
"OOooXX X                                                X XXooOO",
"OOooXX X                                                X XXooOO",
"OOooXX X                                                X XXooOO",
"OOooXX X                                                X XXooOO",
"OOooXX.X................................................X.XXooOO",
"OOooXX X                                                X XXooOO",
"OOooXX X                                                X XXooOO",
"OOooXX.X................................................X.XXooOO",
"OOooXX X                                                X XXooOO",
"OOooXX.X................................................X.XXooOO",
"OOooXX.X................................................X.XXooOO",
"OOooXX X                                                X XXooOO",
"OOooXX.X................................................X.XXooOO",
"OOooXX.X................................................X.XXooOO",
"OOooXX.X................................................X.XXooOO",
"OOooXX.X................................................X.XXooOO",
"OOooXX.X................................................X.XXooOO",
"OOooXX.X................................................X.XXooOO",
"OOooXX.X................................................X.XXooOO",
"OOooXX.X................................................X.XXooOO",
"OOooXX.X................................................X.XXooOO",
"OOooXX.X................................................X.XXooOO",
"OOooXX.X................................................X.XXooOO",
"OOooXX.X................................................X.XXooOO",
"OOooXX..X..............................................X..XXooOO",
"OOooXX..XX............................................XX..XXooOO",
"OOooXX....XXXXXXXXXXXXXXXXXXXXXXXXXXXXXXXXXXXXXXXXXXXX....XXooOO",
"OOooXXX..................................................XXXooOO",
"OOooXXXXXXXXXXXXXXXXXXXXXXXXXXXXXXXXXXXXXXXXXXXXXXXXXXXXXXXXooOO",
"OOoooXXXXXXXXXXXXXXXXXXXXXXXXXXXXXXXXXXXXXXXXXXXXXXXXXXXXXXoooOO",
"OOooooooooooooooooooooooooooooooooooooooooooooooooooooooooooooOO",
"OOOooooooooooooooooooooooooooooooooooooooooooooooooooooooooooOOO",
"OOOOOOOOOOOOOOOOOOOOOOOOOOOOOOOOOOOOOOOOOOOOOOOOOOOOOOOOOOOOOOOO",
"OOOOOOOOOOOOOOOOOOOOOOOOOOOOOOOOOOOOOOOOOOOOOOOOOOOOOOOOOOOOOOOO",
"OOOOOOOOOOOOOOOOOOOOOOOOOOOOOOOOOOOOOOOOOOOOOOOOOOOOOOOOOOOOOOOO"
};
