/* XPM */
static char *result[] = {
/* columns rows colors chars-per-pixel */
"64 64 5 1 ",
"  c #111126",
". c #242455",
"X c #174FE0",
"o c #3AC2FC",
"O c white",
/* pixels */
"OOOOOOOOOOOOOOOOOOOOOOOOOOOOOOOOOOOOOOOOOOOOOOOOOOOOOOOOOOOOOOOO",
"OOOOOOOOOOOOOOOOOOOOOOOOOOOOOOOOOOOOOOOOOOOOOOOOOOOOOOOOOOOOOOOO",
"OOooooooooooooooooooooooooooooooooooooooooooooooooooooooooooooOO",
"OooooooooooooooooooooooooooooooooooooooooooooooooooooooooooooooO",
"OoooXXXXXXXXXXXXXXXXXXXXXXXXXXXXXXXXXXXXXXXXXXXXXXXXXXXXXXXXoooO",
"OooXXXXXXXXXXXXXXXXXXXXXXXXXXXXXXXXXXXXXXXXXXXXXXXXXXXXXXXXXXooO",
"OooXXX                                                    XXXooO",
"OooXX    XXXXXXXXXXXXXXXXXXXXXXXXXXXXXXXXXXXXXXXXXXXXXX    XXooO",
"OooXX  XX                                              XX  XXooO",
"OooXX  X     .        .        .        .        .      X  XXooO",
"OooXX X      .        .        .        .        .       X XXooO",
"OooXX X      .        .        .        .        .       X XXooO",
"OooXX X      .        .        .        .        .       X XXooO",
"OooXX X ................................................ X XXooO",
"OooXX X      .        .        .        .        .       X XXooO",
"OooXX X      .        .        .        .        .       X XXooO",
"OooXX X      .        .        .        .        .       X XXooO",
"OooXX X      .        .        .        .        .       X XXooO",
"OooXX X      .        .        .        .        .       X XXooO",
"OooXX X      .        .        .        .        .       X XXooO",
"OooXX X      .        .        .        .        .       X XXooO",
"OooXX X      .        .        .        .        .       X XXooO",
"OooXX X      .        .        .        .        .       X XXooO",
"OooXX X ................................................ X XXooO",
"OooXX X      .        .        .        .        .       X XXooO",
"OooXX X      .        .        .        .        .       X XXooO",
"OooXX X      .        .        .        .        .       X XXooO",
"OooXX X      .        .        .        .        .       X XXooO",
"OooXX X      .        .        .        .        .       X XXooO",
"OooXX X      .        .        .        .        .       X XXooO",
"OooXX X      .        .        .        .        .       X XXooO",
"OooXX X      .        .        .        .        .       X XXooO",
"OooXX X ................................................ X XXooO",
"OooXX X      .        .        .        .        .       X XXooO",
"OooXX X      .        .        .        .        .       X XXooO",
"OooXX X      .        .        .        .        .       X XXooO",
"OooXX X      .        .        .        .        .       X XXooO",
"OooXX X      .        .        .        .        .       X XXooO",
"OooXX X      .        .        .        .        .       X XXooO",
"OooXX X      .        .        .        .        .       X XXooO",
"OooXX X      .        .        .        .        .       X XXooO",
"OooXX X ................................................ X XXooO",
"OooXX X      .        .        .        .        .       X XXooO",
"OooXX X      .        .        .        .        .       X XXooO",
"OooXX X      .        .        .        .        .       X XXooO",
"OooXX X      .        .        .        .        .       X XXooO",
"OooXX X      .        .        .        .        .       X XXooO",
"OooXX X      .        .        .        .        .       X XXooO",
"OooXX X      .        .        .        .        .       X XXooO",
"OooXX X      .        .        .        .        .       X XXooO",
"OooXX X ................................................ X XXooO",
"OooXX X      .        .        .        .        .       X XXooO",
"OooXX X      .        .        .        .        .       X XXooO",
"OooXX X      .        .        .        .        .       X XXooO",
"OooXX  X     .        .        .        .        .      X  XXooO",
"OooXX  XX                                              XX  XXooO",
"OooXX    XXXXXXXXXXXXXXXXXXXXXXXXXXXXXXXXXXXXXXXXXXXXXX    XXooO",
"OooXXX                                                    XXXooO",
"OooXXXXXXXXXXXXXXXXXXXXXXXXXXXXXXXXXXXXXXXXXXXXXXXXXXXXXXXXXXooO",
"OoooXXXXXXXXXXXXXXXXXXXXXXXXXXXXXXXXXXXXXXXXXXXXXXXXXXXXXXXXoooO",
"OooooooooooooooooooooooooooooooooooooooooooooooooooooooooooooooO",
"OOooooooooooooooooooooooooooooooooooooooooooooooooooooooooooooOO",
"OOOOOOOOOOOOOOOOOOOOOOOOOOOOOOOOOOOOOOOOOOOOOOOOOOOOOOOOOOOOOOOO",
"OOOOOOOOOOOOOOOOOOOOOOOOOOOOOOOOOOOOOOOOOOOOOOOOOOOOOOOOOOOOOOOO"
};
