/* XPM */
static char *c7ff4a05f1064a54c6d9cc10dea0eaf3[] = {
/* columns rows colors chars-per-pixel */
"64 64 3 1 ",
"  c #000C31",
". c #091A3D",
"X c #0E2A63",
/* pixels */
"                                                                ",
" XXXX........................... XXXXXXXXXXXXXXXXXXXXXXXXX....  ",
" X.............................. X............................. ",
" X.............................. X............................. ",
" X.............................  X............................. ",
" X.............................  X............................. ",
" X.............................  X............................. ",
" ..............................  X............................. ",
" ..............................  .............................. ",
" ..............................  .............................  ",
" ..............................  .............................  ",
" ..............................  .............................  ",
" ..............................  .............................  ",
" ..............................  .............................  ",
" ..............................  .............................  ",
"  ................               .........................      ",
"                                                                ",
" XX..X.....   XXXXXXXXXXXXXXXXXXXXXXXXXXXXXXXXXXX....  XXXXXX.. ",
" X..........  X....................................... X....... ",
" ............ X....................................... ........ ",
" ............ X....................................... ........ ",
" ............ X....................................... ........ ",
" ............ X........................... ........... ........ ",
" ............ X.......................... X........... .......  ",
" ............ X........................  X............ .......  ",
" ............ ........................................ .......  ",
" ............ ........................................ .......  ",
" ............ ........................................ .......  ",
" ............ ........................................ .......  ",
" ............ .......................................  .......  ",
" ...........  .......................................  .......  ",
"  .........                  .................         .......  ",
"                                                                ",
" XXXXXXXXX............. XXXXXXXXXXX...XXXXXXXXXXXX............  ",
" X..................... ....................................... ",
" X..................... ....................................... ",
" X..................... ....................................... ",
" X..................... ....................................... ",
" X..................... ....................................... ",
" X..................... ....................................... ",
" X..................... ....................................... ",
" X..................... ....................................... ",
" ...................... ....................................... ",
" ...................... ....................................... ",
" ...................... ....................................... ",
" ...................... ......................................  ",
" ...................... ......................................  ",
"  ....................   .   .....                              ",
"                                                                ",
" XXXXXXXXXXXXXXXXXXXXXXXXXX....XXXXXX... XXXXXXXXXXXXXXXXX..... ",
" ....................................... X..................... ",
" ....................................... X..................... ",
" ....................................... X..................... ",
" ....................................... X..................... ",
" ....................................... X..................... ",
" ....................................... ...................... ",
" ....................................... ...................... ",
" ....................................... ...................... ",
" ....................................... ...................... ",
" ....................................... .....................  ",
" ..................................      .....................  ",
" .............................            ....................  ",
"  ....................                    . .........           ",
"                                                                "
};
